# xmcd
#
# Track frame offsets: 
#        150
#        16567
#        33861
#        50136
#
# Disc length: 885 seconds
#
# Revision: 0
# Processed by: cddbd v1.5.2PL0 Copyright (c) Steve Scherf et al.
# Submitted via: ExactAudioCopyFreeDBPlugin 1.0
#
DISCID=24037304
DTITLE=Oak and Gorski - Sounds Like Love
DYEAR=2012
DGENRE=Cello Rock
TTITLE0=Sounds Like Love
TTITLE1=Find Me Soon
TTITLE2=The LA River
TTITLE3=Sounds Like Love (acoustic version)
EXTD=
EXTT0=
EXTT1=
EXTT2=
EXTT3=
PLAYORDER=
